<svg xmlns="http://www.w3.org/2000/svg" viewBox="0 0 100 100">
  <rect width="100" height="100" rx="15" fill="#fca311"/>
  <rect width="92" height="92" x="4" y="4" rx="11" fill="none" stroke="#000" stroke-width="3"/>
  <path d="M 25 75 L 25 25 L 55 25 C 68 25 72 32 72 40 C 72 48 68 55 55 55 L 42 55 L 42 75 Z M 42 42 L 55 42 C 58 42 58 38 55 38 L 42 38 Z" fill="#000000"/>
  <path d="M 50 55 L 75 80 L 90 80 L 65 55 Z" fill="#000000"/>
  <polygon points="75,45 78,55 88,55 80,62 83,72 75,66 67,72 70,62 62,55 72,55" fill="#ffffff" stroke="#000000" stroke-width="2"/>
</svg>
